<svg xmlns="http://www.w3.org/2000/svg" width="11.792" height="7.917" viewBox="0 0 11.792 7.917">
  <path id="Artwork_102" data-name="Artwork 102" d="M2.646,5.881C4.264,7.233,5.847,8.542,7.4,9.868a1.6,1.6,0,0,1,.479.813.873.873,0,0,1-.522.984.987.987,0,0,1-1.155-.137L2.791,8.687.462,6.736a1.023,1.023,0,0,1,0-1.711C2.346,3.459,4.221,1.884,6.12.335A1.6,1.6,0,0,1,6.917,0a.939.939,0,0,1,.941.668,1.008,1.008,0,0,1-.343,1.144C6.3,2.834,5.087,3.844,3.869,4.862Z" transform="translate(11.792 0) rotate(90)" fill="#fff"/>
</svg>
