<svg xmlns="http://www.w3.org/2000/svg" width="7.917" height="11.792" viewBox="0 0 7.917 11.792">
  <path id="Artwork_102" data-name="Artwork 102" d="M520.132,999.632c1.618,1.352,3.2,2.661,4.758,3.988a1.6,1.6,0,0,1,.479.813.873.873,0,0,1-.522.984.987.987,0,0,1-1.155-.137l-3.415-2.842-2.329-1.951a1.023,1.023,0,0,1,0-1.711c1.884-1.566,3.758-3.141,5.658-4.69a1.6,1.6,0,0,1,.8-.334.939.939,0,0,1,.941.668,1.008,1.008,0,0,1-.343,1.144c-1.215,1.021-2.428,2.031-3.646,3.049Z" transform="translate(525.403 1005.544) rotate(180)" fill="#113a55"/>
</svg>
